<svg xmlns="http://www.w3.org/2000/svg" viewBox="0 0 1249 561"><defs><style>.cls-1{fill:#010101;}.cls-2{fill:#020202;}.cls-3{fill:#f5f5f5;}</style></defs><title>Recurso 1</title><g id="Capa_2" data-name="Capa 2"><g id="Capa_3" data-name="Capa 3"><path class="cls-1" d="M295.53,122.46c-11.17,7.52-21.85,15.78-33.78,22.12-8.9,4.74-18.25,8-28.43,8.42-1.75.07-3.41-.06-4.13-2s.59-2.85,1.79-3.74c11.94-9,20.11-21.17,28.73-33C285,79.52,317.5,55.37,359.85,45.54c8.51-2,10.64,0,9.79,8.69-3,30.57-2.44,61.19-1,91.81,1.8,38.06,5.21,76,5.9,114.15.46,25.3,2.72,50.5,4.65,75.72,1.84,23.88,2.74,47.83,3.94,71.76.26,5.14-.07,10.3.07,15.45.15,5.56,2.08,7.17,7.17,5.59,16.82-5.19,33.7-10.21,50.31-16,12.29-4.27,19.57-14.46,26.21-25,.36-.56.59-1.19.95-1.75,1.08-1.69,2.2-3.81,4.58-2.94s2,3.3,1.51,5.21c-4.49,18.52-5.09,37.54-7.36,56.34a25.51,25.51,0,0,0-.05,3.5c.07,3.57-1.52,5.45-5.19,6C427,459,394.08,469.65,361,479.74c-4.92,1.51-9.81,3-15,3.42-5.85.47-11.18,3-16.55,5.24-4,1.67-8,3.2-12.06,4.63a3.38,3.38,0,0,1-4.09-1c-1.19-1.56-.87-3.17.09-4.64a21.34,21.34,0,0,1,7.39-7.3c6.42-3.56,9.45-8.61,7.54-16.1a7.86,7.86,0,0,1,.13-3.94c4.21-14.29,2.13-28.77,1.32-43.18-1.41-25.08-3.1-50.16-4.63-75.24-.58-9.54-3-12.1-12.32-14.74a67,67,0,0,1-22.22-11c-6.32-4.8-8.16-11.67-7.28-19.15,1.63-13.73,4.76-27.2,7.64-40.7,1.21-5.65,4-6.26,8.37-2.31,3.5,3.15,6,7.1,8.93,10.74,3.28,4.1,6.63,8.17,12.31,10.85-2.52-40.09-5-79.5-7.58-120.45a190,190,0,0,0-12.06,28c-8.59,24.29-12.84,49.52-15.89,75Q278.4,313.38,272.35,369c-1.79,16.38-2.53,32.88-4.43,49.24-4.2,36.16-14.76,70-39.22,98-22,25.25-50.2,39.25-83.23,43.83-.69.1-1.28.18-1.47,1H112c-2.28-2-5.2-1.5-7.84-2-46-7.82-90.19-39.65-101.37-96.8C2,458.16,2.43,453.73,0,450v-7a20.77,20.77,0,0,0,0-14v-7c1.94-2.29,1.45-5.21,2-7.84,6.45-31.46,19.36-59.66,46.43-78.22,34.75-23.81,72.47-28.57,110.8-8.88,29.92,15.38,43.68,49.26,34.35,81.64-4.22,14.66-14.28,24.59-29.22,28.81-7.07,2-10-.9-8.09-8,2-7.7,2.09-15.48,1.68-23.3-.37-6.92-3.82-8.72-9.95-5.49-2.64,1.38-5.29,2.78-8,3.94-5.13,2.18-8.73,5.49-8.93,11.42-.1,2.69-2.14,3.68-3.94,4.7-18.7,10.53-23,29.13-17.3,49.3a30.39,30.39,0,0,0,8.91,14.75,68.32,68.32,0,0,0,44.05,17.9A42.68,42.68,0,0,1,137.29,515c-41.22,4.53-71.13-28.37-63-69.12,2.84-14.21,7.56-27.6,17.75-38.4,11.3-12,25.88-17,41.68-19.36,3.78-.56,7.61-.79,11.43-1.05,1.68-.11,3.43.11,4.13-1.93s-.62-3.09-1.72-4.33c-11.88-13.5-33.74-19.27-49.75-11.25-21.95,11-39.71,27.13-43,52.74-4.13,32.33,1.88,62.62,29.66,83.7,27,20.53,55.7,17.88,84.32,2.52,18.45-9.9,28-26.51,34-45.51,6.75-21.16,9.68-43.13,13-65,4-26.65,8.23-53.28,10.69-80.14,1.68-18.39,2.41-36.87,5.35-55.14q5.88-36.45,11.58-72.93c.93-5.91,1.9-11.84,2.45-17.79.77-8.36,4.81-14.21,12.19-18.13,13-6.9,25.11-15.06,34.91-26.24,1.19-1.36,2.17-2.9,3.25-4.35.43-.19.94-.44.51-.93C296.61,122.14,296,122.4,295.53,122.46Z"/><path class="cls-1" d="M1249,406c-2.09,5.26-1.48,10.91-2.35,16.35-6.13,38.4-26.13,67.61-58.13,89.19-23.94,16.14-49.7,26-79,24.45-24-1.3-45.65-9.72-66-22-22.12-13.28-41.9-28.94-54-52.56-9.19-18-14.16-37.21-17.4-57-4.91-29.88-9.78-59.78-12.66-90-.42-4.47-.71-9-1.17-13.42-.6-5.72-3.76-9.37-9.18-11.24-7.43-2.56-14.12-6.61-20.9-10.5-10.09-5.78-13.37-14.44-11.84-25.73,2-14.59,7.16-28.32,10.81-42.45.88-3.38,3-3.38,5-1.09,2.87,3.22,5.46,6.7,8.2,10,3.16,3.85,6.57,7.4,11.77,9.82-1.21-14.72-2.24-28.94-3.57-43.13-2.15-23-4.9-46-8.58-68.86-.3-1.84.8-5-2.47-4.92-3,0-4,2.67-4.42,5.25q-3.09,19.47-6.06,39c-5.42,35.18-10.94,70.35-15.52,105.66-2.19,16.84-3.17,33.8-4.38,50.73-1.28,17.94-4.23,35.69-5.62,53.61-1.35,17.26-3.33,34.48-3.65,51.8-.24,13.25,4.51,24.69,13.32,34.51a31,31,0,0,1,2.86,3.44c1.64,2.43,1.92,5,0,7.37-1.8,2.18-4,1.67-6.36.88-22.52-7.49-45.68-13-67.79-21.8-3.77-1.51-8.15-1.48-12.2-2.37-5-1.1-6.68-4.84-3.38-8.34,12.11-12.85,14.65-29,16.61-45.5,3.09-25.95,6.19-51.89,9.47-77.81,3.78-29.89,7.45-59.79,11.73-89.6,3.79-26.34,7.47-52.7,12.46-78.85,2.88-15,11.77-26,22.79-35.9C910.81,93,922.87,79.33,935.55,66.34a382.46,382.46,0,0,1,42.19-37.43c2.58-1.95,5.35-2.66,8.36-1,2.73,1.54,3.84,3.9,3.93,7,.62,23.32,3.75,46.44,5.24,69.69q2.06,31.87,4.61,63.72c1.93,24.57,5.79,48.92,8.34,73.42,2.4,23,4.74,46,6.73,69.08,3.92,45.39,11,90,27,133,16.35,44.17,69.65,56.34,97.41,44.12,29-12.76,45.46-35.12,49.46-66.23,3.59-27.88-2.85-53.25-22.23-74.44-11.53-12.6-26-17.4-42.85-15.17-8.81,1.17-15.29,6.23-20.18,13.38-2.45,3.6-1.56,5.35,2.94,5.87,5.12.59,10.26.78,15.27,2.22,21,6,34,20.72,42.78,39.73,11.34,24.41,10,48.25-4.89,70.67-16,24-56.13,30.92-79.63,14.32a7.3,7.3,0,0,1-3.18-4.21A77.8,77.8,0,0,0,1095,472c21.06-5.3,38.52-24.44,40.26-44.65,1.23-14.25-5.5-25.31-15.11-35a55.23,55.23,0,0,0-4.87-4.3c-5.54-4.38-5.56-4.35-.35-9.55l-19.7-12.4c-2,11.34-1.36,22.23-.6,33.1.82,11.78-2.15,14.1-13,9.85-27.09-10.6-40.33-37.35-33.05-66.77,11.84-47.83,58.51-76.06,106.57-64.6,32,7.63,58,23.6,74.8,52.69,11.15,19.37,16.74,40.43,18.09,62.69.08,1.31-1,3,1,3.94Z"/><path class="cls-2" d="M988,0c4.21,2,8.9,1.58,13.32,2.6a40.23,40.23,0,0,1,13.25,5.52c2.26,1.49,5.59,2.53,4.36,6.27-1.11,3.38-4.28,2.78-6.82,2.56C998,15.7,985.36,20.6,973,26.57c-10.6,5.13-18.13,14-26.33,21.94-21.83,21.27-43.09,43.14-65.89,63.38-24.89,22.1-54.14,37.17-84.42,50.38-2,.85-3.82,1.23-5.64-.17s-1.47-3.36-.91-5.41c2.12-7.85,3.82-15.83,6.17-23.61,4.64-15.3,14-27.21,28.9-33,23.87-9.31,42.86-25.14,61-42.5a483.09,483.09,0,0,1,50.21-41.87C946.73,7.9,958.34,2.52,971.57,1c.7-.08,1.29-.2,1.43-1Z"/><path class="cls-2" d="M0,429a20.77,20.77,0,0,1,0,14Z"/><path class="cls-1" d="M701.85,208.92c5.67-18.69,11.84-36.77,16.23-55.38,2.26-9.58,6.36-12.91,15.74-12.31,11.7.75,23.25-.73,34.85-1.64,5.8-.45,11.64-.52,17.46-.73,1.73-.06,3.23.27,4.14,2.09a4.41,4.41,0,0,1-.66,5.1,11.67,11.67,0,0,1-2.17,2c-8.18,6.08-11.35,14.56-11.41,24.36-.21,31,.66,61.92,1.76,92.86.78,21.8,1.87,43.61,1.52,65.4-.32,20,1.74,39.84.87,59.78-.18,4.14-.06,8.24-1,12.39-1.23,5.74.46,11.21,3.31,16.27,1.88,3.32,4,6.52,5.79,9.89,1.3,2.43,1.77,5-.14,7.48s-4.32,1.23-6.79.71C768.69,434.61,756,432,743,431a49.07,49.07,0,0,1-6-.52c-4.91-1-6.23-3.69-2.81-7.26,5.52-5.77,6.1-12.44,6-19.81-.75-48.78-2.72-97.5-5.12-146.22-.27-5.33-.37-10.64-2.38-16.27a51,51,0,0,0-11.13,30.37c-.94,34.61-3.73,69.19-2.35,103.84.54,13.74.11,27.59,4.38,41,2.24,7.08.28,9.07-7.11,9-7.15-.08-14.33-.1-21.29-2.14-4.61-1.35-7.63-4.45-6.26-9.21,5-17.51,0-34.73-1.24-52-2.23-29.86-4.61-59.72-6.23-89.62-.46-8.46-.48-17-3.51-25.1a37,37,0,0,0-12.38-17c-1.32,1-.74,2.28-.74,3.31q.12,72.22.35,144.47c.06,13.14.29,26.26,7.73,38,2.49,3.94.7,6.22-4.81,7a205.46,205.46,0,0,1-28.36,2c-7.84.09-15.67,0-23.5,0-2.68,0-5.62.08-7.13-2.58-1.6-2.83.36-5.19,2.05-7.17,6.68-7.82,8.6-17.21,8.57-27q-.35-108.47-.92-216.91c0-10.22-2.91-19-11.61-25.18-1.78-1.26-2.76-2.85-1.76-5.12,1.18-2.68,3.48-3.6,6.1-3.45,4.65.26,9.27,1.09,13.92,1.19,12.16.27,24.32.29,36.48.39,10.5.09,11.66,1,15.25,10.66,6.41,17.27,13,34.47,19.45,51.74A18.22,18.22,0,0,0,701.85,208.92Z"/><path class="cls-2" d="M494.49,300.82c.4-37.76,4.49-75.47,1.49-113.26a112.17,112.17,0,0,0-5-25.38,25.92,25.92,0,0,0-6.82-11.43c-1.31-1.22-2.95-2.5-2.48-4.59.55-2.49,3-2.5,4.83-2.84A144.78,144.78,0,0,1,514.34,141c8.49,0,17,.11,25.48.15,2.7,0,5.59,0,7,2.71s0,5.22-1.71,7.33c-7,8.43-8.61,18.35-8.37,28.94.38,17.13,2.37,34.24,1.18,51.39-.82,11.79-2.46,23.54-1.92,35.38,1.77,39,.37,77.93.82,116.9,0,1.33,0,2.66,0,4,.18,7.22,2.2,8.85,9.19,7.94,20.7-2.7,35-13.38,41.9-33.36.83-2.42,1.87-4.43,4.89-3.69s3.1,3.1,2.56,5.55c-2.66,12-2.43,24.15-2.37,36.3A83.73,83.73,0,0,1,591,419.35c-1.05,4.71-3.7,7.43-8.87,7.89-30.76,2.75-60.41,11.21-90.41,17.87-1.76.39-3.39,1.36-5.15,1.81-2.25.57-4.29.16-5.7-2s-1.5-4.19.09-6c12.27-14.1,13.71-31.13,13.61-48.72-.16-28.14,0-56.27,0-84.41Z"/><path class="cls-3" d="M295.53,122.46c.42-.06,1.08-.32,1.23-.14.43.49-.08.74-.51.93Z"/></g></g></svg>